<?xml version="1.0" encoding="UTF-8"?>
<svg width="1811px" height="1223px" viewBox="0 0 1811 1223" version="1.1" xmlns="http://www.w3.org/2000/svg" xmlns:xlink="http://www.w3.org/1999/xlink">
    <title>bg</title>
    <defs>
        <linearGradient x1="0%" y1="0%" x2="100%" y2="%" id="linearGradient-1">
            <stop stop-color="#FF00FF" offset="0%"></stop>
            <stop stop-color="#00FFFF" offset="100%"></stop>
        </linearGradient>
        <linearGradient x1="0%" y1="0%" x2="100%" y2="0%" id="linearGradient-2">
            <stop stop-color="#FF00FF" offset="0%"></stop>
            <stop stop-color="#00FFFF" offset="100%"></stop>
        </linearGradient>
        <linearGradient x1="0%" y1="0%" x2="100%" y2="0%" id="linearGradient-3">
            <stop stop-color="#FF00FF" offset="0%"></stop>
            <stop stop-color="#00FFFF" offset="100%"></stop>
        </linearGradient>
        <linearGradient x1="0%" y1="0%" x2="100%" y2="0%" id="linearGradient-4">
            <stop stop-color="#FF00FF" offset="0%"></stop>
            <stop stop-color="#00FFFF" offset="100%"></stop>
        </linearGradient>
        <linearGradient x1="0%" y1="0%" x2="100%" y2="0%" id="linearGradient-5">
            <stop stop-color="#FF00FF" offset="0%"></stop>
            <stop stop-color="#00FFFF" offset="100%"></stop>
        </linearGradient>
    </defs>
    <g id="Page-1" stroke="none" stroke-width="1" fill="none" fill-rule="evenodd">
        <g id="bg" fill-rule="nonzero">
            <path  opacity="0.2" d="M0,0 L0,1187.07666 C120.733337,1092.88428 241.466675,1031.60494 362.200012,1003.23865 C482.93335,974.872355 603.666687,990.716431 724.400024,1050.77087 C845.133362,1110.82532 965.866679,1026.1213 1086.59998,796.658813 C1207.33327,567.19633 1328.06663,541.200724 1448.80005,718.671997 C1569.53347,896.14327 1690.26678,843.368917 1811,560.348938 L1811,0 L0,0 Z" id="Path" fill="url(#linearGradient-1)"></path>
            <path  opacity="0.2" d="M0,0 L0,1160.9397 C120.733337,1079.31087 241.466675,1025.51475 362.200012,999.551331 C482.93335,973.587911 603.666687,970.834269 724.400024,991.290405 C845.133362,1011.74654 965.866679,949.837972 1086.59998,805.564697 C1207.33327,661.291423 1328.06663,592.520996 1448.80005,599.253418 C1569.53347,605.98584 1690.26678,635.569356 1811,688.003967 L1811,0 L0,0 Z" id="Path" fill="url(#linearGradient-2)"></path>
            <path  opacity="0.2" d="M0,0 L0,1209.51587 C120.733337,1150.76978 241.466675,1112.99239 362.200012,1096.18372 C482.93335,1079.37504 603.666687,1013.81038 724.400024,899.489746 C845.133362,785.169108 965.866679,754.848918 1086.59998,808.529175 C1207.33327,862.209432 1328.06663,870.404317 1448.80005,833.113831 C1569.53347,795.823344 1690.26678,743.600911 1811,676.446533 L1811,0 L0,0 Z" id="Path" fill="url(#linearGradient-3)"></path>
            <path  opacity="0.2" d="M0,0 L0,1167.46692 C120.733337,1224.04537 241.466675,1237.12724 362.200012,1206.71252 C482.93335,1176.29781 603.666687,1093.90405 724.400024,959.53125 C845.133362,825.158447 965.866679,749.123352 1086.59998,731.425964 C1207.33327,713.728577 1328.06663,665.768412 1448.80005,587.545471 C1569.53347,509.32253 1690.26678,481.660329 1811,504.558868 L1811,0 L0,0 Z" id="Path" fill="url(#linearGradient-4)"></path>
            <path  opacity="0.2" d="M0,0 L0,1168.45947 C120.733337,1086.57992 241.466675,1037.27415 362.200012,1020.54218 C482.93335,1003.8102 603.666687,1008.08927 724.400024,1033.37939 C845.133362,1058.66951 965.866679,1019.00189 1086.59998,914.376526 C1207.33327,809.75116 1328.06663,763.749674 1448.80005,776.37207 C1569.53347,788.994466 1690.26678,727.696248 1811,592.477417 L1811,0 L0,0 Z" id="Path" fill="url(#linearGradient-5)"></path>
        </g>
    </g>
</svg>